<svg xmlns="http://www.w3.org/2000/svg" viewBox="0 0 64 64" role="img" aria-hidden="true">
  <defs>
    <linearGradient id="rmAvatarBg" x1="0" y1="0" x2="1" y2="1">
      <stop offset="0%" stop-color="#8a1e17"/>
      <stop offset="100%" stop-color="#ef4b2a"/>
    </linearGradient>
  </defs>
  <circle cx="32" cy="32" r="32" fill="url(#rmAvatarBg)"/>
  <circle cx="32" cy="26" r="11" fill="#ffe4d3"/>
  <path d="M32 15c-6 0-10 4.2-10 9.5 0 1.7.4 3.2 1.1 4.5.7-3.6 3.5-6.3 7.4-7 2-.4 4.4-.1 6.4 1 1.6.9 2.9 2.3 3.6 4 .3-.8.5-1.6.5-2.5 0-5.3-4-9.5-9-9.5z" fill="#334155"/>
  <path d="M14 58c1.4-10.4 8.6-16 18-16s16.6 5.6 18 16c-5 3.6-11.4 6-18 6s-13-2.4-18-6z" fill="#f1f5f9"/>
  <path d="M22 45.5c2.7 2.4 6.2 3.8 10 3.8s7.3-1.4 10-3.8c-1.8-1.7-4-3-6.4-3.7l-3.6 4-3.6-4c-2.4.7-4.6 2-6.4 3.7z" fill="#ef4b2a"/>
</svg>
